<?xml version="1.0" encoding="iso-8859-1"?>
<!-- Generator: Adobe Illustrator 24.1.2, SVG Export Plug-In . SVG Version: 6.00 Build 0)  -->
<!DOCTYPE svg PUBLIC "-//W3C//DTD SVG 1.1//EN" "http://www.w3.org/Graphics/SVG/1.1/DTD/svg11.dtd">
<svg version="1.1" id="Capa_1" xmlns="http://www.w3.org/2000/svg" xmlns:xlink="http://www.w3.org/1999/xlink" x="0px" y="0px"
	 width="64px" height="64px" viewBox="0 0 64 64" style="enable-background:new 0 0 64 64;" xml:space="preserve">
<g>
	<g>
		<g id="circle_81_">
			<g>
				<path d="M20,40.7c0,0,1.6-7.7,13-7.7v4c0,0.6,0,1.5,0,1.5s0.9,0,1.4-0.4l9.4-5.8c0.5-0.3,0.7-0.8,0.7-1.4s-0.3-0.9-0.7-1.2
					l-9.4-6.2c-0.5-0.3-1.4-0.3-1.4-0.3s0,1.1,0,1.7v4C27,29,20,31.6,20,40.7z M0,32c0,17.7,14.3,32,32,32s32-14.3,32-32
					S49.7,0,32,0C14.3,0,0,14.3,0,32z M19,39c0-6.6,5.4-12,12-12v-4c0-0.7,0.4-1.4,1.1-1.8c0.7-0.3,1.4-0.3,2.1,0.1l12,8
					c0.6,0.4,0.9,1,0.9,1.7c0,0.7-0.3,1.3-0.9,1.7l-12,8c-0.6,0.4-1.4,0.4-2.1,0.1c-0.7-0.3-1.1-1-1.1-1.8v-4c-5.2,0-9.1,3.4-11,8
					C19.2,41.7,19,40.4,19,39z"/>
			</g>
		</g>
	</g>
</g>
</svg>
